<svg xmlns="http://www.w3.org/2000/svg" viewBox="0 0 160 160" width="160" height="160">
  <defs>
    <linearGradient id="gA" x1="0" x2="1">
      <stop offset="0%" stop-color="#ff7a18"/>
      <stop offset="100%" stop-color="#b00303"/>
    </linearGradient>
  </defs>
  <rect width="160" height="160" rx="20" fill="url(#gA)" />
  <!-- silhouette do skatista -->
  <g transform="translate(18,22) scale(0.7)" fill="#fff">
    <path d="M66 12c-9 0-16 7-16 16s7 16 16 16 16-7 16-16-7-16-16-16zm-22 60c-6 12-10 24-10 32 0 13 11 24 24 24h48c13 0 24-11 24-24 0-8-4-20-10-32-6-12-18-18-30-18H54c-12 0-24 6-30 18z"/>
    <path d="M22 92c10-6 28-8 40-8h36c12 0 30 2 40 8 2 1 3 4 2 6-6 18-18 34-32 40-8 4-18 6-26 6H70c-8 0-18-2-26-6-14-6-26-22-32-40-1-2 0-5 2-6z" opacity="0.95"/>
  </g>
  <!-- detalhe skate -->
  <rect x="26" y="116" width="108" height="8" rx="4" fill="#222" opacity="0.9" />
  <circle cx="48" cy="132" r="6" fill="#222"/>
  <circle cx="112" cy="132" r="6" fill="#222"/>
</svg>