<?xml version="1.0" standalone="no"?>
<!DOCTYPE svg PUBLIC "-//W3C//DTD SVG 20010904//EN"
 "http://www.w3.org/TR/2001/REC-SVG-20010904/DTD/svg10.dtd">
<svg version="1.0" xmlns="http://www.w3.org/2000/svg"
 width="1024.000000pt" height="1024.000000pt" viewBox="0 0 1024.000000 1024.000000"
 preserveAspectRatio="xMidYMid meet">

<g transform="translate(0.000000,1024.000000) scale(0.100000,-0.100000)"
fill="#000000" stroke="none">
<path d="M924 9656 c-153 -48 -282 -169 -331 -309 -13 -36 -15 -599 -15 -4228
l0 -4186 35 -77 c62 -134 182 -231 334 -270 55 -14 465 -16 4151 -16 2871 0
4114 3 4168 11 186 26 342 163 390 343 12 43 14 714 14 4182 0 2924 -3 4148
-11 4190 -28 156 -135 281 -294 345 l-60 24 -4170 2 c-3353 1 -4178 -1 -4211
-11z m4769 -2310 c170 -55 299 -182 366 -360 47 -125 35 -291 -31 -426 -82
-170 -320 -319 -509 -320 l-45 0 -34 -76 c-18 -43 -29 -79 -24 -83 5 -5 81
-18 169 -29 88 -12 207 -28 265 -37 58 -8 175 -24 260 -35 85 -11 211 -29 280
-40 69 -11 202 -31 295 -45 388 -58 406 -63 425 -121 14 -42 4 -78 -32 -114
-33 -34 -75 -38 -183 -19 -33 5 -103 16 -155 24 -341 52 -531 79 -715 105
-115 17 -291 42 -390 56 -245 35 -309 42 -316 35 -17 -15 -110 -213 -104 -219
7 -7 40 -15 245 -56 473 -94 490 -100 529 -179 23 -47 23 -50 8 -110 -8 -34
-47 -137 -86 -229 -39 -92 -71 -172 -71 -178 0 -15 33 -27 117 -44 139 -28
194 -69 179 -132 -9 -33 -72 -84 -106 -84 -15 0 -99 18 -185 39 -176 45 -217
67 -235 129 -13 43 -3 75 93 293 60 137 84 206 74 215 -17 17 -587 144 -647
144 -17 0 -99 -109 -134 -178 -21 -42 -25 -37 121 -153 131 -105 159 -145 149
-216 -13 -94 -87 -181 -179 -208 -34 -10 -130 -17 -317 -21 l-268 -7 -7 87
c-4 48 -4 91 1 96 5 5 122 11 259 15 255 7 295 14 295 49 0 15 -120 111 -215
172 -64 41 -102 104 -90 152 3 15 42 86 85 159 122 202 274 502 258 507 -7 3
-51 10 -98 16 -47 6 -114 15 -150 21 -292 42 -356 52 -434 65 -132 21 -154 19
-211 -19 -28 -19 -135 -87 -240 -152 -104 -65 -223 -140 -263 -167 -40 -27
-88 -52 -106 -55 -38 -6 -87 16 -110 49 -23 32 -20 100 5 131 11 15 89 68 172
118 336 202 524 310 559 321 31 9 76 5 275 -26 457 -71 628 -96 663 -99 34 -2
36 0 77 78 23 44 42 85 42 92 1 7 -19 21 -44 32 -25 11 -73 46 -106 78 -130
123 -189 254 -189 417 0 106 9 145 57 243 65 133 195 248 338 298 64 23 81 25
195 21 74 -3 145 -11 173 -20z m-1115 -225 c213 -1 321 -4 317 -11 -8 -14
-1271 -14 -1280 0 -5 8 416 18 590 14 28 -1 195 -2 373 -3z m292 -180 c0 -5
-8 -11 -18 -13 -33 -9 -902 5 -896 13 7 12 914 12 914 0z m-600 -202 c375 0
537 -3 520 -10 -16 -7 -276 -9 -750 -5 -929 6 -1020 9 -730 17 124 3 268 4
320 3 52 -2 340 -4 640 -5z m483 -136 c171 -16 24 -23 -473 -23 -348 0 -540 4
-540 10 0 6 104 11 278 13 152 1 365 3 472 5 107 1 225 -1 263 -5z m-357
-1776 c13 -16 26 -51 34 -94 13 -75 28 -133 89 -333 46 -152 50 -196 21 -233
-43 -54 -141 -56 -175 -3 -16 25 -121 334 -154 456 -34 124 -22 190 41 227 37
22 117 11 144 -20z m2050 -12 c72 -77 50 -220 -53 -350 -53 -66 -175 -185
-218 -210 -18 -12 -56 -41 -83 -65 -27 -25 -109 -92 -182 -150 -74 -58 -206
-168 -295 -245 -379 -328 -645 -542 -721 -579 -107 -53 -240 -71 -307 -42 -42
17 -84 60 -90 91 -8 45 24 86 113 147 47 32 139 102 204 155 244 201 381 312
766 621 497 399 518 417 583 505 82 111 144 156 216 157 26 0 41 -8 67 -35z
m-104 -551 c31 -16 58 -61 58 -97 0 -62 -45 -133 -102 -163 -58 -30 -165 -5
-202 48 -34 49 -28 128 10 128 9 0 28 -8 42 -19 43 -30 70 -34 97 -17 28 18
31 45 14 96 -19 52 11 60 83 24z m252 -578 c-3 -8 3 -16 15 -19 12 -3 21 -10
21 -16 0 -16 -17 -14 -47 6 l-26 17 7 -39 c17 -101 16 -98 36 -80 15 14 19 14
27 2 4 -8 14 -16 21 -18 13 -4 10 -9 -38 -66 -5 -7 -10 -18 -9 -25 0 -11 2
-11 6 0 6 16 33 -3 33 -23 0 -7 6 -15 14 -18 16 -6 36 11 36 30 0 20 20 16 21
-4 1 -12 3 -10 8 6 5 20 8 21 18 9 15 -18 3 -37 -26 -41 -13 -2 -29 -11 -36
-20 -15 -21 -36 -22 -29 -2 4 8 1 15 -5 15 -6 0 -12 -8 -12 -17 -2 -31 -4 -38
-16 -59 -11 -19 -10 -22 9 -27 13 -4 19 -11 15 -20 -3 -8 0 -20 6 -26 7 -7 7
-11 1 -11 -6 0 -16 12 -22 26 -9 19 -17 24 -32 19 -15 -5 -20 -2 -20 13 0 11
-7 25 -15 32 -12 10 -13 16 -4 26 6 8 14 12 18 10 3 -2 15 2 26 11 20 14 20
14 1 29 -11 8 -23 14 -26 14 -16 0 -41 -40 -45 -74 -4 -29 -2 -36 13 -37 10
-1 8 -4 -8 -8 -14 -4 -25 -14 -25 -24 0 -9 -6 -22 -12 -28 -14 -14 -47 -4 -37
12 4 7 -1 10 -12 7 -13 -2 -19 -12 -19 -28 0 -21 4 -25 27 -22 24 2 28 -1 26
-22 -1 -14 -8 -28 -16 -31 -7 -3 -10 -9 -7 -15 3 -5 1 -10 -5 -10 -6 0 -8 11
-6 24 4 20 1 24 -12 18 -9 -3 -23 -12 -31 -20 -13 -13 -26 -13 -63 3 -24 10
-43 -37 -27 -67 9 -18 8 -24 -7 -35 -24 -18 -39 -11 -39 18 -1 13 -7 43 -15
67 -12 38 -15 41 -30 27 -12 -11 -19 -12 -28 -3 -9 9 -12 8 -12 -5 0 -15 -4
-16 -20 -7 -12 7 -27 7 -37 2 -22 -12 -43 -5 -43 14 0 17 -1 17 -34 4 -14 -5
-26 -17 -26 -26 0 -11 -5 -14 -16 -10 -9 3 -24 6 -35 6 -19 0 -40 34 -45 75
-1 11 -4 27 -5 35 -5 33 2 60 15 60 9 0 14 11 13 34 -1 26 -4 33 -16 28 -9 -3
-13 -1 -8 3 4 5 0 17 -10 27 -15 17 -15 18 10 18 17 0 25 -4 22 -13 -3 -7 10
-17 35 -25 55 -17 64 -16 94 15 27 27 27 27 7 42 -11 9 -21 27 -23 41 -2 20
-9 25 -32 25 -16 0 -31 6 -33 12 -6 17 27 29 36 15 4 -6 17 -9 29 -5 12 3 20
9 17 13 -3 4 3 11 12 14 14 6 11 11 -15 37 -34 33 -38 44 -22 54 6 3 10 -1 10
-10 0 -11 6 -15 18 -11 13 4 22 -1 31 -17 7 -13 28 -36 47 -51 l35 -28 12 31
c10 28 15 33 33 30 4 0 11 5 16 13 7 10 10 10 19 -4 5 -10 17 -18 24 -18 8 0
15 -7 15 -15 0 -9 6 -12 15 -9 9 4 15 0 15 -9 0 -25 20 -31 40 -12 20 18 40
13 40 -11 0 -8 10 -14 26 -14 31 0 28 23 -4 28 -25 4 -30 22 -6 22 11 0 15 6
11 20 -4 17 -1 19 17 14 17 -4 30 2 50 26 14 17 26 35 26 38 0 7 36 28 52 31
4 0 5 -5 2 -13z m164 -33 c-10 -2 -15 -10 -11 -19 3 -8 1 -14 -5 -14 -8 0 -9
16 -3 38 1 1 9 1 19 1 15 -1 16 -2 0 -6z m-423 -51 c-3 -3 -16 5 -28 17 l-22
23 28 -17 c15 -10 25 -20 22 -23z m299 3 c-4 -8 -10 -12 -15 -9 -14 8 -10 24
6 24 9 0 12 -6 9 -15z m-199 -15 c3 -5 1 -10 -4 -10 -6 0 -11 5 -11 10 0 6 2
10 4 10 3 0 8 -4 11 -10z m-653 -94 c4 -6 8 -15 8 -20 0 -14 -129 -136 -144
-136 -13 0 -26 77 -26 152 l0 29 78 -7 c42 -4 80 -12 84 -18z m956 -128 c17
-17 15 -48 -4 -55 -9 -3 -25 3 -37 16 -22 22 -22 22 -3 37 24 17 29 17 44 2z
m-1497 -33 c73 -38 91 -137 40 -217 -34 -53 -53 -66 -114 -74 -79 -11 -182 64
-175 129 5 46 29 56 76 30 68 -39 112 -1 78 65 -17 32 -21 64 -9 75 12 12 74
7 104 -8z m1344 -125 c-3 -5 -10 -10 -16 -10 -5 0 -9 5 -9 10 0 6 7 10 16 10
8 0 12 -4 9 -10z m-4 -43 c-13 -13 -26 -3 -16 12 3 6 11 8 17 5 6 -4 6 -10 -1
-17z m69 -12 c0 -8 5 -15 10 -15 6 0 10 5 10 10 0 16 36 12 51 -6 11 -14 10
-16 -6 -13 -11 2 -25 0 -32 -4 -14 -9 -50 11 -57 30 -3 7 1 13 9 13 8 0 15 -7
15 -15z m-494 -22 c17 -22 18 -84 2 -118 -16 -35 -54 -31 -52 5 6 86 10 116
19 122 14 11 16 10 31 -9z m260 -9 c-9 -8 -20 -12 -26 -9 -19 12 -10 25 16 25
23 0 24 -1 10 -16z m638 -9 c3 -9 0 -15 -9 -15 -24 0 -68 -66 -60 -91 6 -18 4
-20 -14 -14 -15 4 -21 2 -21 -8 0 -15 58 -27 126 -27 27 0 34 4 34 20 0 11 4
20 9 20 10 0 21 -36 13 -44 -9 -10 -212 -7 -212 2 0 5 14 28 30 50 17 23 30
46 30 52 0 5 4 10 8 10 4 0 16 14 25 30 20 33 32 38 41 15z m-1034 -14 c0 -6
-4 -13 -10 -16 -5 -3 -10 1 -10 9 0 9 5 16 10 16 6 0 10 -4 10 -9z m1044 -59
c9 -18 11 -33 5 -43 -7 -12 -9 -11 -9 2 0 9 -7 22 -15 29 -17 14 -20 40 -5 40
5 0 16 -13 24 -28z m-1167 -14 c21 -18 48 -44 60 -57 l22 -25 -22 -15 c-12 -8
-40 -31 -62 -50 l-40 -36 -2 25 c-7 77 -7 190 -1 190 4 0 24 -15 45 -32z m693
-8 c0 -5 -9 -6 -20 -3 -11 3 -17 9 -15 14 7 10 35 1 35 -11z m-297 -27 c6 -37
2 -53 -13 -53 -18 0 -30 38 -20 64 13 36 26 32 33 -11z m-627 -151 c52 -57 94
-107 94 -110 0 -4 -30 -7 -67 -8 -38 0 -132 -2 -210 -2 l-141 -2 68 -67 c38
-38 91 -90 118 -117 l51 -49 33 28 c28 24 64 62 164 176 12 13 30 31 40 39 10
9 57 56 102 105 l84 90 40 -45 c23 -25 120 -126 217 -225 l176 -180 332 -5
c299 -4 358 -9 341 -25 -8 -8 -3900 -4 -4033 4 -144 9 -113 12 240 20 l270 6
-2 28 c-2 34 7 34 37 2 21 -23 31 -25 102 -25 l78 0 -6 25 -6 26 51 -21 c55
-21 87 -25 95 -12 7 11 -17 110 -33 140 -7 13 -10 26 -8 29 3 2 13 -12 23 -32
21 -44 53 -61 72 -37 6 9 12 24 12 34 0 20 19 25 21 6 0 -7 2 -24 3 -38 1 -14
3 -44 4 -67 2 -37 5 -43 25 -43 12 0 42 12 66 26 54 30 71 26 71 -20 0 -34 0
-35 38 -29 20 3 49 12 64 19 21 11 104 14 390 14 l363 0 90 86 90 85 5 -91 c4
-65 10 -94 20 -100 30 -19 35 -3 36 121 l1 125 124 125 c144 145 115 146 255
-9z m-1136 84 c0 -2 3 -11 6 -20 5 -12 0 -16 -20 -16 -24 0 -35 18 -19 33 7 8
33 10 33 3z m-200 -18 c0 2 11 -6 24 -19 38 -39 73 -69 80 -69 3 0 6 7 6 15 0
17 9 19 27 7 18 -11 -3 -73 -37 -111 -15 -16 -25 -32 -22 -35 3 -3 0 -6 -6 -6
-7 0 -12 5 -12 11 0 6 -8 23 -19 37 -10 15 -24 43 -30 63 -7 20 -27 53 -46 72
-19 20 -35 38 -35 40 0 3 16 1 35 -3 19 -4 35 -5 35 -2z m2065 -17 c-3 -6 -11
-8 -17 -5 -6 4 -5 9 3 15 16 10 23 4 14 -10z m-1265 -96 c41 -41 72 -75 68
-75 -20 0 -69 26 -113 60 -27 21 -58 40 -68 41 -16 4 -16 6 -2 27 9 12 22 22
28 22 7 0 46 -34 87 -75z m-461 -16 c-8 -5 -18 -9 -24 -9 -5 0 -3 5 5 10 8 5
11 10 5 10 -5 0 -3 5 5 10 10 6 16 6 19 -1 2 -6 -3 -15 -10 -20z m331 20 c0
-12 -54 -65 -82 -80 -30 -16 -21 3 24 48 43 44 58 52 58 32z m-260 -29 c8 -5
12 -11 9 -14 -3 -3 -14 1 -25 9 -21 16 -8 20 16 5z m324 -61 c45 -21 45 -74 0
-85 -29 -7 -47 6 -65 47 -10 26 -10 32 2 40 19 12 33 11 63 -2z m-399 -23 c42
-18 46 -48 10 -72 -34 -22 -81 -10 -100 26 -19 37 -19 48 3 53 32 9 53 7 87
-7z m280 -56 c32 -33 56 -62 52 -66 -12 -13 -137 90 -137 113 0 26 27 12 85
-47z"/>
<path d="M6538 3503 c23 -9 12 -23 -19 -23 -27 0 -29 -2 -15 -15 17 -17 42
-10 56 15 7 13 6 20 -6 24 -9 3 -19 6 -22 5 -4 0 -1 -3 6 -6z"/>
<path d="M6168 3463 c7 -3 16 -2 19 1 4 3 -2 6 -13 5 -11 0 -14 -3 -6 -6z"/>
<path d="M6560 3445 c0 -8 7 -15 15 -15 8 0 15 4 15 9 0 5 -7 11 -15 15 -9 3
-15 0 -15 -9z"/>
<path d="M6490 3380 c0 -5 5 -10 10 -10 6 0 10 5 10 10 0 6 -4 10 -10 10 -5 0
-10 -4 -10 -10z"/>
<path d="M6056 3232 c-3 -6 -1 -14 5 -17 14 -9 20 -2 10 14 -6 8 -11 9 -15 3z"/>
</g>
</svg>
