<?xml version="1.0" standalone="no"?>
<!DOCTYPE svg PUBLIC "-//W3C//DTD SVG 20010904//EN"
 "http://www.w3.org/TR/2001/REC-SVG-20010904/DTD/svg10.dtd">
<svg version="1.0" xmlns="http://www.w3.org/2000/svg"
 width="1024.000000pt" height="1024.000000pt" viewBox="0 0 1024.000000 1024.000000"
 preserveAspectRatio="xMidYMid meet">

<g transform="translate(0.000000,1024.000000) scale(0.100000,-0.100000)"
fill="#000000" stroke="none">
<path d="M3055 9200 c-3 -5 -2 -10 4 -10 5 0 13 5 16 10 3 6 2 10 -4 10 -5 0
-13 -4 -16 -10z"/>
<path d="M2724 9016 c-8 -22 3 -33 18 -18 9 9 9 15 0 24 -9 9 -13 7 -18 -6z"/>
<path d="M5224 8902 c-42 -36 -174 -155 -244 -217 -48 -44 -143 -128 -393
-343 -34 -30 -96 -84 -137 -121 -245 -221 -288 -259 -320 -285 -19 -15 -94
-81 -166 -146 l-130 -118 -62 30 c-104 52 -289 49 -327 -5 -8 -11 -16 -19 -18
-16 -30 34 -108 429 -111 564 -3 104 -16 174 -39 203 -13 17 -68 15 -95 -4
-18 -12 -22 -25 -22 -68 0 -30 7 -69 15 -89 17 -42 32 -104 39 -170 5 -45 4
-48 -16 -45 -20 3 -21 8 -19 75 2 50 -3 81 -14 102 -18 36 -33 38 -68 11 -26
-21 -26 -22 -20 -116 5 -80 4 -97 -11 -113 -19 -21 -112 -35 -162 -25 -28 5
-32 10 -38 51 -7 52 -39 110 -64 116 -26 6 -71 -21 -77 -46 -7 -25 0 -220 8
-233 2 -5 12 -34 20 -64 9 -31 30 -77 47 -103 18 -26 30 -52 28 -58 -6 -19
-148 150 -199 238 -33 57 -48 72 -79 76 -20 3 -29 15 -45 60 -24 65 -59 110
-83 105 -24 -4 -73 -104 -78 -158 -7 -78 -16 -123 -36 -178 -16 -43 -23 -52
-36 -46 -37 16 -79 16 -95 0 -15 -15 -14 -19 4 -50 16 -28 17 -35 6 -45 -11
-8 -17 -8 -24 1 -16 20 -41 117 -47 177 -7 69 -47 124 -95 129 -18 2 -31 -1
-31 -8 0 -6 -4 -8 -10 -5 -5 3 -10 15 -10 26 0 10 -4 19 -10 19 -5 0 -9 3 -9
8 4 25 -4 22 -17 -7 -15 -35 -29 -34 -36 4 -4 23 -26 30 -48 15 -13 -9 -12
-13 8 -29 25 -22 21 -47 -9 -56 -10 -4 -19 -9 -20 -13 0 -4 -2 -18 -4 -32 -2
-14 -5 -43 -5 -65 -2 -70 -7 -77 -48 -68 -20 3 -55 7 -77 7 -26 1 -39 5 -38
14 2 6 -1 12 -6 12 -4 0 -30 21 -57 48 -54 52 -82 60 -119 36 -19 -13 -25 -25
-25 -54 0 -31 9 -48 59 -104 59 -67 121 -174 159 -272 l19 -51 -57 -16 c-31
-9 -59 -17 -63 -17 -4 0 -13 16 -22 36 -21 52 -144 232 -173 255 -35 27 -86
25 -105 -4 -28 -43 -13 -92 50 -169 32 -38 67 -82 78 -98 12 -16 32 -37 45
-48 l24 -19 -41 -26 c-22 -14 -53 -37 -68 -51 -15 -14 -36 -26 -46 -26 -15 0
-17 -6 -12 -34 3 -18 1 -36 -5 -39 -13 -9 -2 -57 13 -57 8 0 11 8 8 19 -4 15
2 20 29 25 18 3 62 19 96 36 35 16 70 30 77 30 7 0 24 -17 36 -37 12 -21 53
-79 90 -129 37 -50 74 -103 80 -118 12 -25 11 -30 -10 -46 -21 -15 -23 -23
-18 -58 5 -29 3 -43 -9 -53 -8 -7 -19 -20 -24 -29 -8 -15 -5 -17 18 -15 15 1
38 5 50 9 l24 8 -21 22 -20 22 33 26 c33 27 34 27 55 9 12 -10 21 -22 21 -27
0 -5 9 -17 21 -27 13 -11 18 -24 14 -37 -4 -12 2 -23 17 -34 20 -14 23 -14 40
1 11 9 16 24 13 34 -3 10 -2 26 4 36 5 10 12 30 16 46 5 26 8 27 45 21 39 -6
40 -6 40 23 0 19 10 38 28 55 26 25 91 68 103 68 3 0 12 -19 19 -42 7 -24 21
-60 31 -80 11 -21 19 -48 19 -60 0 -26 35 -88 50 -88 24 0 31 41 16 94 -9 30
-16 71 -16 93 0 21 -4 55 -9 75 -5 20 -6 39 -3 42 2 3 22 -12 43 -34 27 -28
47 -40 67 -40 16 0 56 -11 89 -25 33 -13 72 -26 87 -29 14 -3 36 -8 49 -12 20
-6 21 -5 7 12 -29 37 -46 50 -105 75 l-60 25 1 45 c2 81 7 119 15 119 4 0 10
-8 13 -18 13 -41 118 -134 133 -118 4 3 -3 27 -15 51 -12 25 -22 52 -22 59 0
17 66 60 78 52 5 -3 12 -25 14 -50 7 -55 48 -140 71 -144 23 -5 22 28 -4 111
-17 54 -26 68 -45 73 -36 9 -25 25 42 61 134 73 196 65 207 -25 6 -51 43 -135
57 -127 4 3 11 35 15 72 8 75 19 103 40 103 9 0 16 -17 20 -47 4 -27 8 -57 10
-68 2 -11 4 -24 4 -29 1 -5 11 4 23 19 21 26 27 75 16 127 -2 10 21 13 110 12
62 -1 116 -5 119 -8 4 -4 -4 -14 -17 -23 -13 -9 -59 -49 -104 -90 -80 -72
-109 -85 -135 -60 -11 10 -12 5 -7 -28 3 -22 10 -79 15 -127 5 -47 12 -91 15
-97 4 -5 2 -12 -4 -16 -5 -3 -9 -49 -9 -102 0 -159 -23 -161 -189 -18 -87 74
-117 95 -132 90 -11 -3 -20 -11 -20 -16 0 -12 -22 -33 -108 -109 -35 -30 -82
-72 -105 -92 -23 -21 -45 -38 -51 -38 -16 0 -76 -50 -76 -63 0 -7 -26 -34 -57
-61 -32 -26 -83 -71 -114 -100 -30 -28 -69 -62 -86 -76 -116 -95 -161 -150
-122 -150 5 0 123 -45 262 -101 139 -55 306 -121 372 -145 173 -64 705 -277
701 -281 -1 -2 -23 4 -47 13 -73 26 -491 171 -689 239 -194 66 -361 125 -545
194 -60 22 -117 41 -125 41 -29 -1 -167 -117 -154 -129 16 -14 1283 -481 1305
-481 7 0 10 -3 6 -6 -7 -7 -122 26 -522 153 -165 52 -329 103 -365 114 -36 11
-162 52 -281 91 l-216 71 -30 -22 c-35 -26 -12 -30 -272 50 -117 37 -147 41
-125 19 13 -12 201 -85 263 -101 28 -7 51 -16 51 -20 0 -4 -12 -17 -27 -28
-25 -18 -26 -20 -7 -21 11 0 47 -9 80 -19 32 -11 228 -74 434 -141 631 -204
900 -294 896 -298 -2 -2 -62 12 -133 32 -103 28 -918 236 -1290 329 l-83 21
-28 -27 c-30 -29 -65 -39 -43 -13 10 11 1 18 -48 34 l-59 20 -6 -21 c-3 -12
-6 -27 -6 -34 0 -17 123 -71 240 -104 58 -16 134 -39 170 -49 36 -11 144 -41
240 -66 96 -25 247 -67 335 -93 88 -27 250 -72 360 -102 110 -30 193 -55 185
-57 -16 -3 -284 51 -570 116 -96 21 -222 49 -280 61 -58 12 -159 35 -225 51
-162 39 -372 87 -415 95 l-35 6 0 -62 0 -62 150 -33 c83 -19 200 -45 260 -58
61 -14 153 -34 205 -45 52 -11 147 -31 210 -45 63 -14 202 -43 307 -63 106
-21 193 -41 193 -45 0 -4 -35 -36 -77 -70 -42 -35 -100 -84 -127 -109 -28 -25
-118 -102 -201 -172 -82 -70 -179 -152 -215 -183 -36 -31 -101 -86 -144 -123
-44 -36 -127 -108 -185 -160 -58 -52 -158 -138 -222 -192 -64 -54 -124 -105
-133 -115 -33 -33 -72 -2 479 -375 132 -89 327 -223 433 -298 106 -75 206
-145 223 -156 16 -11 65 -44 107 -74 139 -97 312 -215 440 -299 70 -46 177
-118 237 -161 61 -42 161 -110 222 -151 62 -41 113 -78 113 -82 0 -4 -42 -42
-92 -84 -51 -42 -149 -125 -218 -185 -69 -60 -155 -128 -190 -152 -36 -23 -66
-49 -68 -57 -1 -8 19 -29 45 -47 27 -17 111 -76 188 -130 77 -55 205 -143 285
-197 80 -54 147 -101 150 -103 3 -3 -11 -17 -30 -33 -19 -16 -33 -31 -30 -33
3 -3 62 -7 131 -8 l127 -3 57 44 c143 110 213 160 226 160 5 0 9 -45 9 -100 0
-86 2 -100 16 -100 15 0 16 12 11 109 l-5 109 37 36 c20 20 39 36 41 36 3 0 6
-53 7 -118 2 -183 1 -172 23 -172 19 0 20 7 20 158 0 86 4 163 9 170 4 7 28
27 53 45 25 18 82 60 127 95 45 34 86 63 92 65 6 1 9 -95 9 -265 l-1 -268 25
0 25 0 0 272 c-1 150 -1 280 0 289 1 14 95 89 111 89 3 0 6 -73 6 -163 1 -89
3 -171 4 -182 1 -11 -1 -82 -3 -157 l-5 -138 23 0 c23 0 23 1 20 98 -2 53 -4
184 -6 290 -1 106 -6 195 -11 198 -4 3 -6 9 -3 14 3 5 1 19 -5 30 -9 17 -5 25
29 55 21 20 56 48 78 62 106 73 136 93 142 93 4 0 6 -191 4 -425 l-4 -425 39
0 40 0 -2 456 -1 455 35 29 c23 19 37 25 42 17 4 -6 4 -15 2 -19 -3 -4 0 -8 6
-8 7 0 10 7 6 15 -8 22 4 46 28 54 16 7 25 2 42 -21 21 -28 22 -28 27 -7 3 12
1 31 -4 41 -13 24 -8 31 59 80 31 23 63 48 71 56 21 21 83 58 110 67 16 5 39
0 72 -16 27 -12 49 -25 49 -29 0 -7 72 -58 150 -105 25 -16 47 -31 50 -34 9
-11 158 -111 165 -111 3 0 27 -15 53 -32 26 -18 54 -37 63 -43 8 -5 56 -36
105 -69 49 -32 142 -93 206 -135 65 -42 117 -82 118 -89 0 -7 3 -11 8 -8 4 2
31 -15 61 -40 81 -67 112 -57 110 37 0 30 6 74 15 99 24 67 80 180 90 180 4 0
5 -8 0 -17 -4 -10 -11 -103 -15 -206 -3 -111 -11 -193 -17 -199 -7 -7 -3 -22
15 -49 14 -22 27 -39 29 -39 2 0 4 123 3 272 0 332 -1 307 11 288 8 -12 10
-11 10 7 0 12 5 25 10 28 6 4 7 23 4 45 -6 37 -5 39 38 64 38 22 51 25 84 18
43 -9 51 -25 53 -107 1 -60 10 -95 23 -95 5 0 8 6 7 13 -1 6 -1 49 0 95 1 80
2 82 24 78 145 -31 223 -50 229 -55 5 -4 20 -344 20 -451 0 -3 0 -20 -1 -39
-1 -32 -2 -33 -18 -19 -19 17 -126 83 -208 129 -49 28 -115 39 -115 19 0 -5
13 -10 29 -10 30 0 33 -1 206 -132 l115 -88 0 -184 c0 -176 1 -185 20 -191 11
-3 24 -3 30 0 6 4 10 76 10 186 l0 180 58 -45 c31 -25 77 -54 102 -65 46 -20
46 -20 48 -75 2 -45 -1 -57 -16 -65 -17 -9 -42 -70 -42 -101 0 -9 21 -11 78
-7 74 4 77 5 74 28 -1 13 -8 27 -15 30 -9 5 -12 74 -12 271 0 245 1 266 19
293 11 17 35 74 52 127 18 53 47 121 64 152 29 51 80 96 110 96 7 0 18 8 25
17 11 15 15 15 29 4 14 -12 15 -27 9 -115 -9 -113 -10 -320 -4 -628 l5 -208
27 0 c29 0 39 15 39 60 0 39 10 43 56 20 46 -24 48 -24 80 -4 l25 17 -27 16
c-23 14 -28 24 -29 63 -3 52 -10 68 -31 68 -16 0 -18 -22 -5 -68 8 -27 7 -32
-7 -32 -10 0 -28 7 -40 16 -20 13 -22 24 -22 95 0 60 3 79 14 79 7 0 75 -31
151 -69 133 -67 139 -69 167 -55 36 19 35 34 -5 61 -29 20 -261 134 -312 153
-20 8 -23 18 -28 112 -17 265 -20 506 -7 540 28 69 26 69 168 31 213 -56 423
-133 463 -169 13 -12 18 -42 23 -142 9 -154 15 -194 30 -189 19 6 73 126 80
178 4 28 13 61 21 73 19 30 47 166 43 212 l-3 39 -33 -57 c-19 -32 -37 -58
-42 -58 -29 0 -50 105 -50 257 0 129 2 135 49 127 20 -4 43 -10 52 -15 14 -7
17 4 23 86 4 52 5 99 1 104 -3 6 -30 -1 -61 -16 -30 -13 -132 -51 -226 -84
-94 -32 -178 -65 -188 -74 -9 -8 -29 -15 -45 -15 -15 0 -60 -12 -99 -26 -39
-14 -107 -37 -151 -49 -44 -13 -144 -46 -222 -74 -311 -111 -427 -150 -431
-146 -3 2 1 18 8 35 8 19 10 48 7 75 -5 30 -3 45 5 45 6 0 34 11 62 25 28 13
60 26 71 28 11 2 38 12 60 22 66 29 247 95 261 95 9 0 14 -12 14 -33 0 -18 7
-42 15 -53 14 -17 14 -13 9 43 -5 48 -3 64 7 67 8 2 103 37 211 76 108 40 201
69 207 65 6 -3 12 -18 12 -33 1 -20 2 -22 6 -7 2 11 6 30 8 41 4 18 30 31 132
69 84 31 136 45 154 41 20 -4 28 -1 32 13 3 12 28 26 78 42 73 24 74 25 77 62
2 20 2 37 0 37 -2 0 -31 -9 -65 -19 l-61 -19 -5 24 c-2 12 -5 60 -6 105 -1 45
-6 129 -11 188 -8 102 -8 107 13 123 12 10 26 18 31 18 5 0 29 9 53 21 35 17
43 26 43 48 0 22 -4 27 -22 27 -12 -1 -29 -8 -38 -17 -9 -8 -47 -28 -86 -43
-38 -16 -94 -40 -124 -54 -30 -14 -100 -44 -155 -67 -139 -59 -401 -172 -453
-195 -51 -24 -62 -20 -62 23 0 30 4 34 73 64 266 118 326 143 344 143 11 0 26
6 32 14 7 8 63 36 124 62 62 25 117 50 122 54 6 4 39 19 76 34 114 45 179 85
179 109 0 49 -11 47 -210 -45 -107 -49 -244 -111 -305 -138 -336 -145 -524
-230 -555 -249 -61 -37 -62 -50 12 204 28 94 58 202 68 240 10 39 41 152 69
253 28 101 54 202 57 226 5 34 12 46 39 62 110 64 200 120 360 224 99 65 244
155 323 200 l142 83 -1 56 c-2 114 27 117 -329 -28 -426 -174 -612 -257 -1116
-500 -200 -96 -266 -123 -199 -83 17 10 120 65 230 122 110 56 253 132 317
167 64 35 145 77 180 92 35 16 169 85 298 152 129 68 321 166 425 219 l190 95
3 113 c2 76 -1 112 -8 112 -6 0 -74 -29 -152 -65 -77 -36 -141 -65 -144 -65
-4 0 -454 -200 -654 -290 -158 -72 -426 -199 -664 -316 -128 -63 -92 -33 54
43 52 28 277 145 500 260 223 116 459 239 525 273 66 34 209 108 317 165 108
56 205 108 214 116 13 11 16 28 12 101 -2 48 -7 90 -10 94 -4 3 -24 0 -45 -6
-52 -17 -1127 -549 -1393 -690 -355 -187 -385 -203 -378 -196 7 8 308 186 314
186 2 0 52 28 111 63 60 35 149 85 198 111 50 27 128 72 175 101 94 58 644
374 783 449 48 26 87 50 87 54 0 3 -21 27 -46 53 l-45 46 63 33 c170 88 188
102 188 147 0 18 -2 33 -5 33 -10 0 -88 -42 -216 -115 -70 -40 -193 -108 -275
-150 -205 -107 -270 -142 -409 -220 -66 -37 -165 -92 -220 -123 -94 -52 -440
-250 -655 -374 -163 -95 -175 -102 -165 -91 11 11 335 212 650 403 66 40 176
108 245 152 69 44 250 154 403 246 152 91 277 170 277 174 0 11 -429 431 -795
779 -77 74 -210 202 -295 285 -85 83 -217 209 -293 279 -136 127 -138 129
-114 141 28 15 235 96 289 113 39 13 72 41 47 41 -16 0 -138 -33 -296 -80
l-113 -34 -30 29 c-16 16 -30 32 -30 35 0 9 25 20 195 90 148 62 255 109 255
115 0 2 -206 -68 -407 -139 -40 -14 -79 -26 -86 -26 -18 0 -51 36 -43 48 5 9
88 51 180 92 23 10 36 19 29 19 -7 1 -60 -19 -117 -44 -58 -25 -109 -45 -114
-45 -5 0 -29 19 -55 41 l-46 41 242 122 c271 136 365 192 349 208 -14 14 -228
-72 -475 -190 l-178 -85 -24 23 c-44 41 -45 40 180 165 29 17 57 34 62 39 11
11 -29 -7 -169 -76 -65 -32 -126 -58 -136 -58 -19 0 -52 29 -52 46 0 5 15 19
33 30 58 39 271 170 314 194 24 13 41 25 39 28 -6 5 -186 -88 -311 -160 -55
-32 -105 -58 -111 -58 -14 0 -64 53 -64 68 0 6 75 62 166 124 92 61 162 114
156 116 -13 4 -141 -68 -269 -150 -62 -40 -97 -57 -106 -51 -8 4 -41 33 -75
63 l-60 56 52 44 c29 25 95 83 147 129 52 46 123 109 158 140 75 66 330 292
381 338 l35 32 -875 0 -875 0 -31 -27z m-1964 -954 c61 -211 105 -348 126
-393 13 -27 19 -42 12 -31 -49 73 -134 124 -267 162 -34 10 -65 23 -67 29 -10
26 143 305 167 305 4 0 18 -33 29 -72z m2059 -49 c185 -30 374 -149 481 -305
36 -51 92 -166 108 -221 38 -128 34 -309 -9 -434 -71 -204 -252 -387 -474
-476 l-80 -32 0 -188 0 -187 455 3 454 3 191 63 c313 104 336 108 401 59 82
-60 86 -192 8 -253 -25 -20 -414 -153 -544 -186 -56 -15 -121 -16 -515 -13
l-450 3 -3 -222 -2 -223 117 0 c65 0 147 -5 182 -10 138 -23 273 -126 338
-258 l38 -76 5 -401 c5 -435 4 -421 61 -451 21 -10 70 -14 202 -14 172 0 173
0 215 -27 110 -71 102 -201 -15 -270 -45 -26 -56 -28 -184 -31 -271 -7 -362
20 -485 142 -122 123 -118 105 -124 561 -5 370 -6 391 -25 416 -11 15 -34 36
-51 48 -28 19 -44 21 -200 21 -134 0 -174 3 -190 15 -10 8 -28 14 -39 14 -11
0 -29 -6 -39 -14 -16 -12 -56 -15 -193 -15 -123 0 -183 -4 -206 -14 -38 -15
-95 -76 -102 -109 -2 -12 -6 -143 -8 -292 -3 -247 -5 -274 -24 -322 -44 -109
-168 -237 -290 -299 l-58 -29 -250 -3 c-285 -3 -301 0 -343 73 -28 49 -24 111
12 166 40 60 76 70 260 75 214 6 240 10 277 42 60 50 69 86 69 290 l0 182 -27
-7 c-16 -4 -107 -7 -203 -7 -249 1 -505 41 -632 99 -65 29 -58 31 34 5 120
-33 341 -54 591 -54 179 -1 229 2 236 12 4 8 9 48 10 89 3 94 24 153 84 231
93 120 189 186 305 211 29 6 118 11 197 11 l145 0 0 220 c0 203 -1 220 -17
220 -10 0 -229 1 -488 1 l-470 0 -274 92 c-299 99 -331 116 -352 188 -23 76
24 163 106 194 55 22 84 15 320 -67 94 -33 188 -66 210 -73 30 -9 158 -13 503
-14 l462 -1 0 220 0 220 -27 6 c-56 13 -230 106 -291 155 -207 166 -303 442
-242 697 41 172 149 323 310 432 166 113 341 152 539 119z m-2289 -11 c0 -7
-23 -58 -50 -113 -39 -79 -50 -96 -56 -80 -4 11 -22 54 -40 95 -18 41 -31 76
-30 78 5 5 130 30 154 31 12 1 22 -5 22 -11z m-999 -197 c29 -53 69 -148 69
-163 0 -4 -30 -24 -66 -44 -73 -41 -75 -40 -95 30 -13 49 -14 110 0 178 11 58
19 126 21 173 1 21 7 7 20 -44 11 -40 34 -98 51 -130z m572 53 c61 -83 107
-167 107 -196 0 -11 -14 -23 -33 -31 -18 -8 -41 -22 -50 -32 -10 -9 -19 -16
-21 -14 -1 2 -16 49 -34 104 -86 277 -79 319 31 169z m-133 0 c6 -14 10 -37
10 -52 0 -24 -2 -25 -15 -11 -20 20 -32 89 -16 89 6 0 16 -12 21 -26z m-682
-167 c23 -28 42 -61 42 -73 0 -12 7 -41 15 -64 8 -24 18 -68 22 -98 5 -45 4
-54 -8 -48 -8 3 -22 9 -31 12 -19 7 -21 13 -18 56 1 15 -19 74 -44 132 -25 58
-46 111 -46 119 0 7 -7 22 -15 33 -27 35 -15 50 13 15 15 -18 46 -56 70 -84z
m1894 79 c35 -14 71 -27 82 -30 17 -6 17 -7 1 -34 -9 -15 -29 -37 -44 -49 -25
-22 -25 -23 -4 -23 29 0 34 -19 10 -43 -16 -16 -23 -17 -44 -8 -33 15 -33 15
-73 -20 -19 -17 -53 -42 -75 -57 -22 -14 -54 -39 -72 -55 l-32 -30 -98 13
c-172 22 -169 15 -37 97 96 60 116 69 120 55 11 -34 22 -47 48 -56 21 -8 29
-6 41 10 22 29 18 50 -20 109 -60 95 -59 97 37 121 46 12 86 22 90 22 4 1 36
-9 70 -22z m-1344 -13 c5 -10 13 -108 16 -218 7 -208 3 -226 -30 -115 -9 30
-22 69 -29 85 -48 110 -55 154 -30 175 17 14 20 40 5 40 -19 0 -10 31 13 40
33 13 45 12 55 -7z m132 -29 c0 -8 -4 -12 -10 -9 -5 3 -10 13 -10 21 0 8 5 12
10 9 6 -3 10 -13 10 -21z m635 -23 c44 -12 108 -35 143 -50 l63 -28 -89 -56
c-48 -31 -123 -83 -166 -117 -75 -58 -106 -72 -106 -50 0 24 -53 60 -89 60
-34 0 -35 0 -14 15 26 18 20 47 -26 129 -17 29 -31 63 -31 75 0 19 5 22 33 19
29 -3 36 -10 78 -92 25 -49 53 -92 61 -97 23 -13 52 25 51 67 -1 23 6 43 18
55 24 24 25 51 2 42 -10 -3 -23 -10 -29 -15 -15 -11 -31 9 -38 46 -5 27 -3 28
27 24 18 -3 68 -15 112 -27z m-855 5 c0 -21 -20 -30 -33 -17 -9 9 -8 14 3 21
21 14 30 12 30 -4z m259 -145 c11 -54 11 -54 -25 -107 -21 -30 -41 -54 -44
-54 -22 0 -21 159 2 253 l12 48 22 -43 c12 -24 27 -67 33 -97z m266 -36 c14
-13 25 -30 25 -37 0 -7 -35 -31 -77 -53 -42 -22 -106 -59 -142 -82 -36 -23
-67 -40 -69 -38 -11 11 38 82 85 123 30 26 71 62 91 79 45 39 56 40 87 8z
m-585 -17 c8 -18 35 -76 60 -130 26 -53 51 -113 54 -133 l7 -37 -31 22 c-17
12 -43 41 -58 64 -29 44 -76 107 -130 174 l-33 41 33 15 c57 25 84 20 98 -16z
m1438 -94 c7 -14 9 -36 6 -48 -4 -19 -1 -25 19 -30 29 -7 39 -36 22 -60 -12
-15 -16 -16 -47 -3 -38 16 -108 74 -108 89 0 5 17 8 38 6 36 -3 37 -2 40 35 4
43 14 47 30 11z m-1635 2 c9 -7 17 -18 17 -23 0 -5 36 -44 80 -87 44 -43 80
-84 80 -90 0 -9 -172 -131 -202 -144 -10 -5 2 90 13 103 5 5 9 17 9 27 0 10 5
18 11 18 16 0 1 39 -32 87 -28 39 -29 46 -19 83 12 43 16 46 43 26z m-269 -58
c141 -87 155 -99 156 -133 0 -24 -51 -127 -65 -131 -9 -3 -74 85 -115 156 -9
15 -30 44 -48 65 -36 45 -40 61 -14 68 31 8 35 7 86 -25z m1536 -278 c0 -5 -2
-10 -4 -10 -3 0 -8 5 -11 10 -3 6 -1 10 4 10 6 0 11 -4 11 -10z m851 -275 c32
-119 166 -205 452 -290 70 -21 127 -41 127 -45 0 -10 -162 17 -266 45 -161 42
-257 101 -316 194 -29 46 -36 105 -21 161 l8 25 2 -25 c2 -14 8 -43 14 -65z
m344 -25 c23 -25 137 -80 230 -110 39 -13 64 -25 57 -28 -19 -6 -139 36 -213
74 -63 33 -125 84 -102 84 5 0 18 -9 28 -20z m-159 -1640 c-62 -19 -260 -31
-346 -22 l-85 9 140 3 c77 1 165 5 195 10 30 4 71 7 90 8 l35 0 -29 -8z m2794
-204 c0 -2 -7 -7 -16 -10 -8 -3 -12 -2 -9 4 6 10 25 14 25 6z m-3900 -345
c154 -28 291 -36 637 -36 199 0 359 -3 355 -7 -29 -28 -558 -49 -732 -29 -115
14 -327 64 -344 82 -8 8 -6 10 9 6 11 -3 45 -10 75 -16z m75 -248 c168 -32
157 -40 -27 -19 -73 9 -167 16 -208 16 -142 0 -277 -43 -347 -110 -41 -39 -43
-26 -4 21 39 47 135 97 219 114 86 18 188 12 367 -22z m4114 -380 c34 -25 71
-98 71 -141 0 -37 -19 -79 -46 -104 -11 -9 -77 -40 -149 -68 -139 -55 -209
-88 -293 -139 -52 -31 -54 -31 -189 -31 l-136 0 41 -44 c72 -78 87 -118 87
-226 0 -84 -3 -101 -27 -145 -42 -81 -93 -131 -166 -167 -58 -29 -78 -33 -160
-37 -91 -3 -96 -2 -167 33 -82 41 -148 106 -187 184 -18 36 -23 63 -22 117 0
93 16 142 69 220 l45 65 -980 0 c-539 0 -980 -2 -980 -5 0 -3 22 -34 48 -69
58 -75 76 -132 70 -223 -11 -185 -157 -329 -344 -341 -219 -14 -401 125 -421
322 l-6 54 -29 -10 c-41 -15 -218 -2 -343 23 -247 51 -444 136 -542 235 -35
34 -63 68 -63 75 0 7 19 -6 43 -28 54 -54 215 -130 370 -177 121 -37 344 -72
491 -78 77 -3 80 -2 86 22 11 42 47 104 84 149 20 24 36 45 36 48 0 2 -64 1
-142 -3 -133 -6 -145 -5 -178 14 -19 11 -138 59 -265 106 -236 88 -264 102
-299 150 -47 63 -13 171 67 213 58 30 109 22 290 -51 93 -36 185 -75 206 -85
36 -19 89 -20 1757 -22 l1719 -2 95 45 c315 151 391 170 459 121z m1349 -490
c6 -109 13 -205 17 -214 5 -14 -17 -26 -123 -68 -72 -28 -134 -51 -140 -51
-16 0 -20 45 -18 239 l1 186 120 52 c66 29 123 53 126 53 3 0 11 -89 17 -197z
m-322 -10 c2 -37 5 -131 6 -208 l3 -139 -180 -72 c-99 -39 -190 -75 -202 -79
-23 -6 -23 -5 -24 92 -1 54 -4 145 -8 201 -4 65 -2 107 4 112 6 4 82 37 170
74 88 37 174 73 190 80 17 8 32 12 34 10 1 -1 5 -33 7 -71z m-451 -28 c0 -21
-7 -33 -25 -42 -121 -60 -169 -81 -173 -77 -7 8 10 63 25 82 18 22 129 72 153
69 15 -1 20 -9 20 -32z m5 -292 l0 -198 -183 -72 c-100 -39 -183 -70 -185 -69
-1 2 7 23 18 48 19 44 79 241 105 346 7 29 14 54 16 56 11 10 197 85 212 86
16 0 17 -16 17 -197z m-5000 -93 c36 -19 255 -78 350 -94 52 -8 142 -20 199
-25 107 -10 143 -23 96 -35 -44 -11 -232 13 -369 49 -108 27 -287 93 -305 111
-8 8 10 4 29 -6z m4260 -71 c0 -28 -4 -48 -9 -44 -5 3 -7 21 -4 40 5 30 3 35
-13 35 -16 0 -17 2 -4 10 26 17 30 11 30 -41z m-50 21 c0 -5 -5 -10 -11 -10
-5 0 -7 5 -4 10 3 6 8 10 11 10 2 0 4 -4 4 -10z m51 -132 c1 -29 2 -83 3 -120
0 -38 4 -68 8 -68 11 0 148 50 193 70 88 39 124 52 135 48 11 -3 -23 -20 -95
-48 -11 -4 -47 -19 -80 -33 -33 -13 -100 -39 -150 -55 -49 -17 -130 -47 -180
-67 -49 -19 -94 -35 -98 -35 -4 0 -27 -8 -50 -19 -23 -10 -78 -33 -122 -51
-44 -17 -88 -36 -97 -41 -23 -12 -45 -12 -32 0 13 13 269 116 404 163 63 22
121 45 128 50 8 7 12 47 12 134 0 76 4 124 10 124 6 0 10 -24 11 -52z m-296 2
c3 -6 -1 -7 -9 -4 -18 7 -21 14 -7 14 6 0 13 -4 16 -10z m1765 -125 c19 -76
32 -205 21 -205 -4 0 -43 15 -87 34 -43 19 -136 51 -206 72 -70 21 -124 41
-120 45 18 17 340 129 361 126 8 -1 21 -31 31 -72z m-2844 -107 c291 -200 723
-485 801 -529 48 -27 57 -42 43 -69 -6 -10 -10 -29 -10 -42 0 -46 -14 -52 -56
-24 -22 15 -97 64 -169 110 -71 47 -163 106 -204 133 -40 26 -80 53 -89 58 -9
6 -57 37 -107 70 -49 33 -106 68 -125 79 -19 10 -37 21 -40 25 -8 10 -146 101
-153 101 -4 0 -28 15 -54 33 -27 19 -63 40 -80 47 -18 7 -33 16 -33 21 0 12
99 89 114 89 7 0 80 -46 162 -102z m1084 72 c0 -5 -5 -10 -11 -10 -5 0 -7 5
-4 10 3 6 8 10 11 10 2 0 4 -4 4 -10z m514 -87 c12 -75 8 -91 -25 -109 -21
-11 -44 -14 -68 -10 -20 4 -45 7 -56 7 -46 2 -115 22 -115 34 0 19 19 31 95
60 39 15 86 33 105 40 51 21 57 19 64 -22z m-814 -9 c0 -8 -5 -12 -10 -9 -6 4
-8 11 -5 16 9 14 15 11 15 -7z m1320 -38 c0 -18 -19 -41 -66 -77 -54 -41 -83
-89 -138 -223 -9 -22 -18 -37 -20 -35 -2 2 -7 65 -11 140 l-7 136 83 22 c46
12 93 26 104 31 21 9 55 13 55 6z m-319 -118 c1 -18 0 -84 0 -147 -1 -82 2
-119 12 -135 19 -28 32 -447 14 -465 -16 -16 -50 -14 -73 5 -18 15 -18 15 9 9
55 -11 25 18 -66 66 -32 16 -60 35 -62 42 -7 20 -13 603 -6 614 3 5 14 12 23
16 14 5 19 0 24 -21 3 -15 8 -33 10 -40 8 -26 29 -5 43 41 13 42 18 47 43 47
25 0 28 -4 29 -32z m-824 -125 c-29 -96 -85 -237 -96 -241 -11 -4 -13 13 -6
98 4 57 9 109 12 116 4 11 66 42 87 43 4 1 6 -7 3 -16z m-1702 -71 c-12 -13
-24 22 -12 37 10 12 13 11 15 -8 2 -13 1 -26 -3 -29z m1522 6 c-3 -7 -5 -2 -5
12 0 14 2 19 5 13 2 -7 2 -19 0 -25z m-1518 -104 c-1 -41 -6 -74 -11 -74 -12
0 -27 42 -20 55 9 14 10 45 2 40 -4 -2 -6 13 -6 35 0 34 2 37 19 29 15 -9 18
-21 16 -85z m-9 -104 c0 -5 -7 -7 -15 -4 -8 4 -12 10 -9 15 6 11 24 2 24 -11z
m2600 -370 c8 -5 12 -12 8 -15 -9 -9 -48 4 -48 16 0 12 21 11 40 -1z"/>
<path d="M7325 2482 c-30 -6 -41 -20 -27 -34 10 -10 17 -7 34 10 24 24 23 30
-7 24z"/>
<path d="M7532 2161 c2 -19 9 -37 17 -39 11 -4 12 2 7 24 -11 45 -28 55 -24
15z"/>
<path d="M7984 8853 c-3 -15 -29 -116 -56 -223 -28 -107 -54 -213 -58 -235 -5
-22 -59 -240 -120 -485 -194 -771 -204 -810 -198 -816 4 -3 87 22 185 56 98
34 268 92 378 130 286 96 723 246 770 263 l40 14 3 64 c5 97 -15 276 -43 384
-50 192 -176 397 -340 553 -145 139 -261 215 -425 281 -119 47 -128 48 -136
14z"/>
<path d="M2368 8835 c-14 -32 5 -57 40 -53 37 5 51 32 28 57 -26 28 -54 26
-68 -4z"/>
<path d="M2824 8829 c-10 -17 13 -36 27 -22 12 12 4 33 -11 33 -5 0 -12 -5
-16 -11z"/>
<path d="M4993 8813 c-18 -6 -16 -23 1 -23 17 0 30 16 19 23 -5 2 -14 2 -20 0z"/>
<path d="M1907 8723 c-14 -13 -6 -33 13 -33 13 0 20 7 20 20 0 19 -20 27 -33
13z"/>
<path d="M2100 8656 c0 -9 7 -16 16 -16 17 0 14 22 -4 28 -7 2 -12 -3 -12 -12z"/>
<path d="M4127 8664 c-4 -4 -7 -18 -7 -31 0 -20 5 -24 23 -21 16 2 22 10 22
28 0 24 -23 39 -38 24z"/>
<path d="M2440 8645 c-9 -11 -10 -19 -2 -27 14 -14 32 -1 32 23 0 23 -13 25
-30 4z"/>
<path d="M1805 8640 c-3 -6 1 -7 9 -4 18 7 21 14 7 14 -6 0 -13 -4 -16 -10z"/>
<path d="M2846 8642 c-3 -6 -1 -14 5 -17 15 -10 25 3 12 16 -7 7 -13 7 -17 1z"/>
<path d="M2540 8581 c0 -11 26 -22 34 -14 12 12 5 23 -14 23 -11 0 -20 -4 -20
-9z"/>
<path d="M3640 8570 c0 -5 5 -10 10 -10 6 0 10 5 10 10 0 6 -4 10 -10 10 -5 0
-10 -4 -10 -10z"/>
<path d="M1935 8550 c3 -5 11 -10 16 -10 6 0 7 5 4 10 -3 6 -11 10 -16 10 -6
0 -7 -4 -4 -10z"/>
<path d="M2350 8510 c0 -5 5 -10 10 -10 6 0 10 5 10 10 0 6 -4 10 -10 10 -5 0
-10 -4 -10 -10z"/>
<path d="M2270 8485 c0 -8 7 -15 15 -15 8 0 15 7 15 15 0 8 -7 15 -15 15 -8 0
-15 -7 -15 -15z"/>
<path d="M7060 8480 c0 -5 5 -10 10 -10 6 0 10 5 10 10 0 6 -4 10 -10 10 -5 0
-10 -4 -10 -10z"/>
<path d="M2015 8460 c-3 -5 -1 -10 4 -10 6 0 11 5 11 10 0 6 -2 10 -4 10 -3 0
-8 -4 -11 -10z"/>
<path d="M1605 8420 c-3 -6 -3 -20 0 -31 6 -17 12 -19 33 -14 37 9 38 12 17
35 -20 22 -40 26 -50 10z"/>
<path d="M2350 8416 c0 -9 5 -16 10 -16 6 0 10 4 10 9 0 6 -4 13 -10 16 -5 3
-10 -1 -10 -9z"/>
<path d="M2452 8358 c-16 -16 -15 -33 3 -68 11 -20 23 -30 39 -30 30 0 47 -20
40 -46 -6 -24 19 -49 41 -40 26 10 17 45 -17 66 -29 17 -32 24 -30 58 2 23 -2
43 -10 49 -23 18 -54 23 -66 11z"/>
<path d="M2125 8350 c-7 -12 2 -30 16 -30 12 0 12 27 0 35 -5 3 -12 1 -16 -5z"/>
<path d="M1695 8340 c-3 -5 1 -10 9 -10 9 0 16 5 16 10 0 6 -4 10 -9 10 -6 0
-13 -4 -16 -10z"/>
<path d="M3839 8252 c-74 -45 -115 -76 -117 -88 -5 -38 122 -224 153 -224 23
0 167 75 203 105 31 26 43 67 23 79 -4 3 -11 19 -14 36 -12 57 -87 160 -117
160 -10 0 -69 -31 -131 -68z"/>
<path d="M1975 8300 c-3 -5 3 -11 12 -13 17 -4 17 -5 1 -6 -21 -1 -24 -17 -4
-24 14 -5 51 29 38 36 -22 12 -42 15 -47 7z"/>
<path d="M7585 8280 c3 -5 10 -10 16 -10 5 0 9 5 9 10 0 6 -7 10 -16 10 -8 0
-12 -4 -9 -10z"/>
<path d="M2096 8241 c-10 -16 6 -42 23 -39 9 2 17 13 19 26 3 16 -2 22 -17 22
-11 0 -22 -4 -25 -9z"/>
<path d="M1300 8225 c0 -8 5 -15 10 -15 6 0 10 7 10 15 0 8 -4 15 -10 15 -5 0
-10 -7 -10 -15z"/>
<path d="M1475 8229 c-10 -15 3 -25 16 -12 7 7 7 13 1 17 -6 3 -14 1 -17 -5z"/>
<path d="M1845 8230 c-3 -5 1 -10 9 -10 9 0 16 5 16 10 0 6 -4 10 -9 10 -6 0
-13 -4 -16 -10z"/>
<path d="M1540 8195 c-19 -14 -31 -25 -27 -25 5 0 -1 -13 -11 -28 -16 -21 -18
-32 -10 -46 8 -13 7 -21 -3 -27 -11 -6 -10 -9 4 -15 9 -3 17 -13 17 -21 0 -17
25 -45 33 -37 9 10 47 -21 42 -33 -6 -16 0 -16 25 -1 16 10 25 9 50 -5 30 -18
31 -18 49 5 13 15 16 25 8 30 -15 9 5 73 23 73 8 0 20 11 27 25 11 22 10 26
-6 32 -11 4 -36 25 -57 47 -32 33 -48 42 -84 46 -37 4 -51 1 -80 -20z"/>
<path d="M2270 8150 c0 -5 5 -10 10 -10 6 0 10 5 10 10 0 6 -4 10 -10 10 -5 0
-10 -4 -10 -10z"/>
<path d="M2083 8133 c-7 -2 -13 -17 -13 -32 0 -35 18 -58 51 -66 28 -7 43 5
51 42 11 45 -39 77 -89 56z"/>
<path d="M1086 8104 c-29 -28 -12 -57 30 -52 35 4 45 35 18 55 -23 17 -29 16
-48 -3z"/>
<path d="M3635 8101 c-3 -5 -1 -12 5 -16 5 -3 10 1 10 9 0 18 -6 21 -15 7z"/>
<path d="M857 8034 c-9 -10 2 -24 19 -24 8 0 14 7 14 15 0 15 -21 21 -33 9z"/>
<path d="M2028 8023 c7 -3 16 -2 19 1 4 3 -2 6 -13 5 -11 0 -14 -3 -6 -6z"/>
<path d="M1190 7991 c0 -24 18 -37 32 -23 8 8 7 16 -2 27 -17 21 -30 19 -30
-4z"/>
<path d="M828 7974 c-12 -11 4 -34 24 -34 13 0 18 6 16 17 -3 18 -29 29 -40
17z"/>
<path d="M3631 7946 c-17 -20 -10 -80 10 -84 22 -4 41 42 29 73 -11 28 -22 31
-39 11z"/>
<path d="M1247 7913 c-14 -13 -6 -23 18 -23 16 0 25 6 25 15 0 15 -31 21 -43
8z"/>
<path d="M1122 7858 c7 -19 38 -22 38 -4 0 10 -9 16 -21 16 -12 0 -19 -5 -17
-12z"/>
<path d="M456 7834 c-8 -21 1 -34 24 -34 22 0 33 23 17 39 -16 16 -34 14 -41
-5z"/>
<path d="M697 7734 c-14 -15 -6 -43 14 -49 25 -8 42 6 37 31 -3 19 -38 31 -51
18z"/>
<path d="M1146 7721 c-4 -6 3 -15 14 -21 23 -12 27 2 6 19 -9 8 -16 8 -20 2z"/>
<path d="M660 7615 c0 -8 5 -15 10 -15 6 0 10 7 10 15 0 8 -4 15 -10 15 -5 0
-10 -7 -10 -15z"/>
<path d="M1092 7548 c-20 -20 -14 -38 13 -38 27 0 33 21 12 39 -10 8 -17 7
-25 -1z"/>
<path d="M988 7473 c7 -3 16 -2 19 1 4 3 -2 6 -13 5 -11 0 -14 -3 -6 -6z"/>
<path d="M750 7460 c0 -5 4 -10 9 -10 6 0 13 5 16 10 3 6 -1 10 -9 10 -9 0
-16 -4 -16 -10z"/>
<path d="M217 7396 c-8 -19 15 -37 32 -26 17 10 7 40 -13 40 -7 0 -16 -6 -19
-14z"/>
<path d="M1131 7378 c-11 -11 -17 -26 -13 -32 4 -7 8 -4 10 6 2 10 14 21 28
24 13 3 21 10 18 15 -9 14 -22 11 -43 -13z"/>
<path d="M1275 7367 c-4 -11 -3 -23 4 -30 15 -15 19 -7 11 23 -6 22 -8 23 -15
7z"/>
<path d="M870 7356 c0 -2 7 -6 15 -10 8 -3 15 -1 15 4 0 6 -7 10 -15 10 -8 0
-15 -2 -15 -4z"/>
<path d="M1045 7290 c4 -6 11 -8 16 -5 14 9 11 15 -7 15 -8 0 -12 -5 -9 -10z"/>
<path d="M1204 7288 c-4 -6 1 -17 12 -25 20 -15 30 -4 20 22 -6 18 -22 19 -32
3z"/>
<path d="M878 7279 c-10 -5 -18 -17 -18 -24 0 -17 16 -20 25 -5 3 6 15 10 26
10 12 0 19 5 17 13 -6 16 -29 19 -50 6z"/>
<path d="M587 7263 c-12 -11 -7 -50 7 -62 21 -18 56 3 56 33 0 29 -44 49 -63
29z"/>
<path d="M780 7130 c0 -5 5 -10 10 -10 6 0 10 5 10 10 0 6 -4 10 -10 10 -5 0
-10 -4 -10 -10z"/>
<path d="M2847 7133 c-4 -3 -7 -27 -6 -52 1 -41 5 -50 45 -85 24 -21 47 -36
50 -33 9 9 -25 109 -49 144 -23 34 -29 38 -40 26z"/>
<path d="M980 7060 c0 -5 5 -10 10 -10 6 0 10 5 10 10 0 6 -4 10 -10 10 -5 0
-10 -4 -10 -10z"/>
<path d="M1160 7037 c0 -8 7 -17 15 -21 8 -3 15 -2 15 3 0 5 -7 14 -15 21 -12
10 -15 10 -15 -3z"/>
<path d="M1270 7006 c0 -8 5 -18 10 -21 6 -4 8 -11 5 -16 -10 -15 12 -10 25 6
10 12 10 18 0 30 -16 19 -40 19 -40 1z"/>
<path d="M1515 7000 c-19 -7 -19 -8 -2 -15 10 -4 23 -3 29 3 14 14 -3 21 -27
12z"/>
<path d="M2840 6993 c0 -12 -5 -25 -10 -28 -6 -4 -8 -11 -5 -16 4 -5 1 -9 -4
-9 -18 0 -12 -39 7 -49 16 -9 18 -5 16 32 -1 23 3 45 8 48 7 4 7 13 -1 25 -10
18 -10 18 -11 -3z"/>
<path d="M980 6990 c0 -5 5 -10 11 -10 5 0 7 5 4 10 -3 6 -8 10 -11 10 -2 0
-4 -4 -4 -10z"/>
<path d="M1339 6947 c-9 -7 -21 -22 -28 -34 -6 -13 -17 -23 -24 -23 -7 0 -20
-15 -28 -32 -21 -42 -23 -88 -5 -88 8 0 16 -5 18 -12 4 -11 16 -15 74 -25 28
-4 34 0 67 49 19 29 37 60 38 68 4 36 -3 57 -26 83 -27 29 -60 34 -86 14z"/>
<path d="M2972 6915 c-23 -22 -42 -47 -42 -56 0 -12 -7 -15 -25 -11 -20 3 -25
0 -25 -16 0 -23 38 -41 49 -23 9 13 28 -6 57 -56 11 -20 26 -33 38 -33 18 0
19 6 13 93 -3 50 -10 103 -14 117 l-8 25 -43 -40z"/>
<path d="M1040 6905 c0 -8 7 -15 15 -15 8 0 15 7 15 15 0 8 -7 15 -15 15 -8 0
-15 -7 -15 -15z"/>
<path d="M830 6875 c0 -8 7 -15 15 -15 8 0 15 7 15 15 0 8 -7 15 -15 15 -8 0
-15 -7 -15 -15z"/>
<path d="M2320 6839 c0 -5 5 -7 10 -4 6 3 10 8 10 11 0 2 -4 4 -10 4 -5 0 -10
-5 -10 -11z"/>
<path d="M2652 6808 c5 -18 12 -43 15 -55 7 -30 24 -29 52 1 20 21 21 27 10
48 -16 30 -28 38 -61 38 -25 0 -26 -1 -16 -32z"/>
<path d="M1010 6820 c0 -5 5 -10 10 -10 6 0 10 5 10 10 0 6 -4 10 -10 10 -5 0
-10 -4 -10 -10z"/>
<path d="M733 6798 c2 -7 10 -13 17 -13 7 0 15 6 18 13 2 7 -5 12 -18 12 -13
0 -20 -5 -17 -12z"/>
<path d="M1036 6801 c-4 -5 -2 -12 3 -15 5 -4 12 -2 15 3 4 5 2 12 -3 15 -5 4
-12 2 -15 -3z"/>
<path d="M902 6778 c5 -15 28 -18 29 -3 0 6 -7 12 -17 13 -10 3 -15 -1 -12
-10z"/>
<path d="M1015 6770 c-3 -5 -1 -10 4 -10 6 0 11 5 11 10 0 6 -2 10 -4 10 -3 0
-8 -4 -11 -10z"/>
<path d="M1095 6768 c-31 -17 -58 -55 -71 -97 -12 -42 -2 -74 20 -65 8 3 20
-4 28 -15 8 -12 29 -24 46 -27 25 -5 36 -1 57 21 37 36 74 50 81 30 8 -19 28
-19 44 0 11 13 9 15 -11 13 -23 -3 -24 0 -25 54 -1 38 -7 63 -18 73 -19 20
-122 28 -151 13z"/>
<path d="M1445 6769 c-4 -6 -4 -13 -1 -16 8 -8 36 5 36 17 0 13 -27 13 -35 -1z"/>
<path d="M2364 6694 c-13 -26 -15 -41 -7 -53 27 -43 67 -4 41 41 -7 13 -11 29
-10 36 5 24 -7 12 -24 -24z"/>
<path d="M1990 6710 c0 -5 5 -10 11 -10 5 0 7 5 4 10 -3 6 -8 10 -11 10 -2 0
-4 -4 -4 -10z"/>
<path d="M1380 6700 c0 -5 -6 -10 -14 -10 -17 0 -29 -27 -16 -35 14 -8 30 3
30 21 0 8 5 14 10 14 6 0 10 5 10 10 0 6 -4 10 -10 10 -5 0 -10 -4 -10 -10z"/>
<path d="M623 6693 c-17 -6 -16 -30 1 -36 17 -7 40 18 31 33 -7 11 -13 11 -32
3z"/>
<path d="M2490 6686 c0 -9 5 -16 10 -16 6 0 10 4 10 9 0 6 -4 13 -10 16 -5 3
-10 -1 -10 -9z"/>
<path d="M925 6680 c-3 -5 1 -10 9 -10 9 0 16 5 16 10 0 6 -4 10 -9 10 -6 0
-13 -4 -16 -10z"/>
<path d="M2165 6659 c-10 -15 3 -25 16 -12 7 7 7 13 1 17 -6 3 -14 1 -17 -5z"/>
<path d="M1990 6630 c-14 -27 -8 -34 20 -25 12 4 20 13 18 23 -5 24 -25 25
-38 2z"/>
<path d="M1490 6625 c0 -15 46 -32 57 -21 10 9 -18 36 -38 36 -11 0 -19 -7
-19 -15z"/>
<path d="M1667 6633 c-13 -12 -7 -23 13 -23 11 0 20 7 20 15 0 15 -21 21 -33
8z"/>
<path d="M1006 6575 c-3 -9 0 -15 9 -15 8 0 15 7 15 15 0 8 -4 15 -9 15 -5 0
-11 -7 -15 -15z"/>
<path d="M1402 6538 c7 -19 38 -22 38 -4 0 10 -9 16 -21 16 -12 0 -19 -5 -17
-12z"/>
<path d="M1813 6543 c9 -2 23 -2 30 0 6 3 -1 5 -18 5 -16 0 -22 -2 -12 -5z"/>
<path d="M2375 6541 c-9 -16 3 -31 26 -31 14 0 19 6 17 17 -4 20 -33 29 -43
14z"/>
<path d="M2183 6500 c-29 -12 -30 -43 -3 -70 24 -24 34 -25 54 -4 19 18 20 38
6 65 -12 21 -23 23 -57 9z"/>
<path d="M985 6480 c3 -5 8 -10 11 -10 2 0 4 5 4 10 0 6 -5 10 -11 10 -5 0 -7
-4 -4 -10z"/>
<path d="M1581 6447 c-6 -8 -14 -28 -17 -45 -6 -29 -4 -31 32 -38 46 -9 68 4
72 43 2 23 -2 32 -23 41 -34 16 -50 15 -64 -1z"/>
<path d="M1145 6420 c3 -5 13 -10 21 -10 8 0 12 5 9 10 -3 6 -13 10 -21 10 -8
0 -12 -4 -9 -10z"/>
<path d="M1834 6320 c-59 -24 -72 -104 -25 -151 35 -35 72 -37 119 -9 28 17
32 25 32 61 0 51 -13 75 -50 94 -32 17 -45 18 -76 5z"/>
<path d="M1970 6260 c0 -5 5 -10 11 -10 5 0 7 5 4 10 -3 6 -8 10 -11 10 -2 0
-4 -4 -4 -10z"/>
<path d="M790 6250 c0 -5 5 -10 10 -10 6 0 10 5 10 10 0 6 -4 10 -10 10 -5 0
-10 -4 -10 -10z"/>
<path d="M1310 6235 c0 -8 5 -15 10 -15 6 0 10 7 10 15 0 8 -4 15 -10 15 -5 0
-10 -7 -10 -15z"/>
<path d="M1517 6228 c-31 -24 -26 -94 8 -110 20 -9 28 -8 44 6 28 25 35 64 16
92 -17 26 -42 31 -68 12z"/>
<path d="M942 6141 c2 -7 7 -12 11 -12 12 1 9 15 -3 20 -7 2 -11 -2 -8 -8z"/>
<path d="M865 5950 c3 -5 8 -10 11 -10 2 0 4 5 4 10 0 6 -5 10 -11 10 -5 0 -7
-4 -4 -10z"/>
<path d="M1757 5084 c-10 -11 3 -24 24 -24 10 0 19 7 19 15 0 15 -31 21 -43 9z"/>
<path d="M1407 4932 c-10 -10 -17 -22 -17 -26 0 -9 49 27 50 37 0 13 -17 7
-33 -11z"/>
<path d="M1320 4854 c0 -27 14 -25 30 7 9 16 7 19 -10 19 -15 0 -20 -7 -20
-26z"/>
<path d="M8280 4073 c0 -13 29 -38 35 -31 3 3 -4 13 -15 23 -11 10 -20 13 -20
8z"/>
<path d="M8073 3763 c-48 -33 -14 -133 40 -118 37 11 69 54 62 84 -4 14 -11
32 -17 38 -14 18 -58 15 -85 -4z"/>
<path d="M1320 3068 l0 -333 108 -27 c59 -15 157 -41 217 -58 61 -16 122 -30
138 -30 l27 0 0 239 0 239 -47 28 c-27 15 -122 77 -213 137 -155 103 -212 137
-225 137 -3 0 -5 -150 -5 -332z"/>
<path d="M2335 3000 c-3 -5 -1 -10 4 -10 6 0 11 5 11 10 0 6 -2 10 -4 10 -3 0
-8 -4 -11 -10z"/>
<path d="M2304 2971 c3 -5 -2 -8 -11 -7 -11 1 -18 -7 -19 -21 -1 -14 3 -20 12
-16 8 3 11 10 7 17 -3 6 -1 6 8 -1 7 -7 20 -13 29 -12 8 0 10 3 4 5 -7 3 -10
14 -7 24 4 14 0 20 -11 20 -10 0 -15 -4 -12 -9z"/>
<path d="M2237 2913 c-4 -3 -7 -11 -7 -17 0 -6 5 -5 12 2 6 6 9 14 7 17 -3 3
-9 2 -12 -2z"/>
<path d="M2177 2857 c-12 -13 -31 -27 -42 -32 -19 -7 -19 -8 5 -14 16 -5 26
-3 28 5 2 7 12 14 23 17 10 3 19 13 19 22 0 10 5 13 12 9 7 -4 8 -3 4 4 -11
18 -25 15 -49 -11z"/>
<path d="M8430 2820 c0 -5 5 -10 11 -10 5 0 7 5 4 10 -3 6 -8 10 -11 10 -2 0
-4 -4 -4 -10z"/>
<path d="M2045 2731 c-3 -5 -1 -12 4 -15 5 -3 11 1 15 9 6 16 -9 21 -19 6z"/>
<path d="M1913 2620 c-3 -11 -13 -20 -22 -20 -24 0 -61 -28 -61 -46 0 -12 6
-11 28 6 23 19 27 20 30 6 2 -9 7 -16 11 -16 14 0 29 23 24 35 -2 8 0 23 7 34
8 16 8 21 -1 21 -6 0 -13 -9 -16 -20z"/>
<path d="M1930 2600 c0 -5 5 -10 10 -10 6 0 10 5 10 10 0 6 -4 10 -10 10 -5 0
-10 -4 -10 -10z"/>
<path d="M1784 2525 c-15 -14 -32 -25 -38 -26 -15 -1 -71 -69 -57 -69 6 0 20
8 31 18 35 30 100 94 100 98 0 9 -10 3 -36 -21z"/>
<path d="M1830 2495 c0 -8 -6 -15 -14 -15 -16 0 -29 -27 -17 -34 9 -6 51 39
51 54 0 6 -4 10 -10 10 -5 0 -10 -7 -10 -15z"/>
<path d="M1757 2423 c-4 -3 -7 -11 -7 -17 0 -6 5 -5 12 2 6 6 9 14 7 17 -3 3
-9 2 -12 -2z"/>
<path d="M1639 2400 c-11 -7 -9 -13 9 -30 12 -12 20 -25 17 -31 -12 -19 22 -8
43 14 28 30 28 39 -2 31 -14 -3 -29 0 -38 9 -9 10 -20 12 -29 7z"/>
<path d="M5526 2381 c-4 -5 -2 -12 3 -15 5 -4 12 -2 15 3 4 5 2 12 -3 15 -5 4
-12 2 -15 -3z"/>
<path d="M1579 2349 c-19 -17 -55 -49 -81 -72 -27 -23 -48 -44 -48 -47 0 -3 9
-6 20 -7 11 -1 20 4 20 12 0 7 9 17 20 20 11 3 25 15 30 26 6 10 18 19 28 19
15 0 58 67 49 76 -2 2 -19 -10 -38 -27z"/>
<path d="M5527 2325 c3 -14 10 -25 15 -25 13 0 6 43 -8 47 -7 2 -10 -6 -7 -22z"/>
<path d="M1635 2310 c-3 -5 -1 -10 4 -10 6 0 11 5 11 10 0 6 -2 10 -4 10 -3 0
-8 -4 -11 -10z"/>
<path d="M8138 2299 c-19 -10 -25 -39 -9 -39 23 0 41 14 41 31 0 21 -7 23 -32
8z"/>
<path d="M1598 2278 c9 -9 15 -9 24 0 9 9 7 12 -12 12 -19 0 -21 -3 -12 -12z"/>
<path d="M5541 2264 c0 -11 3 -14 6 -6 3 7 2 16 -1 19 -3 4 -6 -2 -5 -13z"/>
<path d="M1556 2245 c-16 -9 -39 -27 -52 -40 -23 -25 -51 -35 -38 -13 4 7 3 8
-4 4 -7 -4 -12 -11 -12 -17 0 -5 -9 -18 -20 -29 -22 -22 -26 -40 -9 -40 6 0
35 20 66 45 30 25 60 48 66 53 11 6 41 52 35 52 -2 0 -16 -7 -32 -15z"/>
<path d="M5206 2211 c-3 -5 -6 -20 -6 -32 1 -107 -1 -128 -10 -134 -6 -4 -8
-10 -5 -15 11 -17 16 -98 6 -104 -13 -9 -1 -46 15 -46 11 0 14 32 14 170 0 94
-2 170 -4 170 -3 0 -7 -4 -10 -9z"/>
<path d="M5516 2192 c-2 -4 4 -9 15 -9 11 -1 17 2 14 8 -7 11 -22 12 -29 1z"/>
<path d="M2676 2153 c-3 -4 -6 -17 -6 -30 0 -33 116 -108 140 -90 8 6 12 8 8
3 -9 -11 9 -46 23 -46 6 0 8 9 4 20 -4 14 -2 19 7 17 7 -2 10 -2 6 0 -5 3 -8
10 -8 17 0 7 -10 22 -22 33 -30 27 -144 84 -152 76z"/>
<path d="M5805 2138 c-5 -13 -47 -180 -92 -366 -14 -56 -24 -105 -21 -107 2
-3 29 2 59 10 45 12 234 54 537 117 28 6 52 14 52 18 0 10 -381 256 -518 334
-7 4 -14 1 -17 -6z"/>
<path d="M8594 1923 c8 -161 12 -186 29 -180 9 3 12 44 11 140 -2 153 -7 187
-31 187 -14 0 -15 -16 -9 -147z"/>
<path d="M1810 2036 c0 -9 7 -16 16 -16 17 0 14 22 -4 28 -7 2 -12 -3 -12 -12z"/>
<path d="M2005 2030 c3 -5 12 -7 20 -3 21 7 19 13 -6 13 -11 0 -18 -4 -14 -10z"/>
<path d="M2921 1961 c-10 -18 1 -35 36 -54 13 -8 6 30 -8 38 -4 3 -6 12 -2 20
8 22 -15 18 -26 -4z"/>
<path d="M2125 1960 c3 -5 8 -10 11 -10 2 0 4 5 4 10 0 6 -5 10 -11 10 -5 0
-7 -4 -4 -10z"/>
<path d="M2990 1955 c0 -8 7 -15 16 -15 14 0 14 3 4 15 -7 8 -14 15 -16 15 -2
0 -4 -7 -4 -15z"/>
<path d="M5526 1952 c-8 -13 5 -53 15 -46 12 7 12 41 0 49 -5 3 -12 2 -15 -3z"/>
<path d="M7104 1800 c-39 -16 -237 -248 -286 -337 -36 -62 -14 -127 40 -121
20 2 34 17 61 63 37 65 159 198 172 189 5 -3 9 -34 9 -70 l0 -64 -37 15 c-40
17 -46 15 -38 -8 4 -8 22 -18 41 -21 l34 -7 0 -69 c0 -61 2 -69 21 -75 11 -4
31 -4 45 -1 22 6 24 11 26 74 0 37 0 74 0 82 -1 8 -4 74 -7 145 -9 208 -18
231 -81 205z"/>
<path d="M8310 1552 c0 -5 -9 -12 -20 -15 -16 -4 -18 -10 -12 -28 5 -13 14
-25 19 -26 17 -6 43 27 39 50 -3 21 -26 38 -26 19z"/>
<path d="M2963 1522 c-6 -4 -8 -14 -4 -22 5 -14 8 -14 23 1 12 13 13 19 4 22
-7 3 -17 2 -23 -1z"/>
<path d="M5518 1489 c-10 -5 -18 -17 -18 -24 0 -8 8 -15 18 -15 14 0 15 -2 2
-10 -12 -8 -13 -13 -3 -29 10 -16 9 -20 -4 -25 -11 -5 -13 -10 -4 -20 6 -7 8
-16 4 -19 -3 -4 1 -7 10 -7 13 0 17 9 17 35 0 20 -5 35 -12 35 -7 0 -5 6 4 18
10 11 13 24 8 37 -4 11 -6 23 -3 28 5 9 2 9 -19 -4z"/>
<path d="M5440 1440 c0 -6 7 -10 15 -10 8 0 15 2 15 4 0 2 -7 6 -15 10 -8 3
-15 1 -15 -4z"/>
<path d="M2352 1411 c4 -13 18 -16 19 -4 0 4 -5 9 -11 12 -7 2 -11 -2 -8 -8z"/>
<path d="M5455 1400 c3 -5 8 -10 11 -10 2 0 4 5 4 10 0 6 -5 10 -11 10 -5 0
-7 -4 -4 -10z"/>
<path d="M7030 1325 c0 -8 5 -15 10 -15 6 0 10 7 10 15 0 8 -4 15 -10 15 -5 0
-10 -7 -10 -15z"/>
<path d="M3955 1310 c11 -5 27 -9 35 -9 13 -1 13 0 0 9 -8 5 -24 9 -35 9 l-20
0 20 -9z"/>
<path d="M5518 1313 c7 -3 16 -2 19 1 4 3 -2 6 -13 5 -11 0 -14 -3 -6 -6z"/>
</g>
</svg>
